<svg xmlns="http://www.w3.org/2000/svg" version="1.1" xmlns:xlink="http://www.w3.org/1999/xlink" xmlns:svgjs="http://svgjs.dev/svgjs" width="128" height="128" viewBox="0 0 128 128"><g transform="matrix(0.8046875,0,0,0.8046875,12.760752631578946,38.01070049637034)"><svg viewBox="0 0 95 48" data-background-color="#111111" preserveAspectRatio="xMidYMid meet" height="64" width="128" xmlns="http://www.w3.org/2000/svg" xmlns:xlink="http://www.w3.org/1999/xlink"><g id="tight-bounds" transform="matrix(1,0,0,1,-0.24049999999999727,0.22303643056744704)"><svg viewBox="0 0 95.481 47.553927138865106" height="47.553927138865106" width="95.481"><g><svg viewBox="0 0 95.481 47.553927138865106" height="47.553927138865106" width="95.481"><g><svg viewBox="0 0 95.481 47.553927138865106" height="47.553927138865106" width="95.481"><g id="textblocktransform"><svg viewBox="0 0 95.481 47.553927138865106" height="47.553927138865106" width="95.481" id="textblock"><g><svg viewBox="0 0 95.481 47.553927138865106" height="47.553927138865106" width="95.481"><g><svg viewBox="0 0 95.481 47.553927138865106" height="47.553927138865106" width="95.481"><g><svg xmlns="http://www.w3.org/2000/svg" xmlns:xlink="http://www.w3.org/1999/xlink" version="1.1" x="0" y="0" viewBox="1.827 20.694 96.979 48.3" enable-background="new 0 0 100 100" xml:space="preserve" height="47.553927138865106" width="95.481" class="icon-icon-0" data-fill-palette-color="accent" id="icon-0"><path fill="#ffffff" d="M81.288 47.982c0-0.001 0-0.002 0.001-0.002 0.021-0.187 0.034-0.375 0.046-0.564 0-0.004 0-0.009 0-0.013 0.011-0.194 0.017-0.39 0.017-0.586 0-6.113-5.078-11.068-11.342-11.068-6.263 0-11.342 4.955-11.342 11.068 0 0.161 0.005 0.321 0.012 0.479 0.006 0.069 0.01 0.137 0.014 0.206 0.005 0.076 0.011 0.152 0.019 0.229 0.017 0.199 0.037 0.396 0.063 0.591 0.002 0.005 0.002 0.009 0.002 0.013-0.15-0.775-0.229-1.578-0.229-2.4 0-5.579 3.649-10.265 8.58-11.581-1.676-7.807-8.612-13.66-16.92-13.66-8.749 0-15.977 6.489-17.144 14.916-1.459-0.632-3.067-0.984-4.759-0.984-6.262 0-11.398 4.806-11.929 10.93 3.486-0.817 7.415-1.278 11.569-1.278 13.179 0 24.073 4.626 25.84 10.638-3.215-4.57-13.391-7.908-25.449-7.908C13.697 47.008 1.827 51.93 1.827 58s11.87 10.994 26.509 10.994c9.019 0 16.983-1.869 21.772-4.723 3.309-0.056 6.352-0.459 8.832-1.109 4.051 0.877 8.896 1.387 14.102 1.387 14.23 0 25.764-3.809 25.764-8.506C98.805 52.295 91.471 49.117 81.288 47.982z" data-fill-palette-color="accent"></path></svg></g></svg></g></svg></g></svg></g></svg></g><g></g></svg></g><defs></defs></svg><rect width="95.481" height="47.553927138865106" fill="none" stroke="none" visibility="hidden"></rect></g></svg></g></svg>