<svg xmlns="http://www.w3.org/2000/svg" version="1.1" xmlns:xlink="http://www.w3.org/1999/xlink" xmlns:svgjs="http://svgjs.dev/svgjs" width="2000" height="348" viewBox="0 0 2000 348"><g transform="matrix(1,0,0,1,-1.2121212121212466,-0.42381664062912705)"><svg viewBox="0 0 396 69" data-background-color="#111111" preserveAspectRatio="xMidYMid meet" height="348" width="2000" xmlns="http://www.w3.org/2000/svg" xmlns:xlink="http://www.w3.org/1999/xlink"><g id="tight-bounds" transform="matrix(1,0,0,1,0.2400000000000091,0.08403260977991067)"><svg viewBox="0 0 395.52 68.83193478044018" height="68.83193478044018" width="395.52"><g><svg viewBox="0 0 526.0435250703933 91.54680827598645" height="68.83193478044018" width="395.52"><g><svg viewBox="0 0 526.0435250703933 91.54680827598645" height="91.54680827598645" width="526.0435250703933"><g id="textblocktransform"><svg viewBox="0 0 526.0435250703933 91.54680827598645" height="91.54680827598645" width="526.0435250703933" id="textblock"><g><svg viewBox="0 0 526.0435250703933 58.167100000000005" height="58.167100000000005" width="526.0435250703933"><g><svg><g></g><g></g></svg></g><g><svg><g><svg></svg></g><g></g></svg></g><g id="text-0"><svg viewBox="0 0 526.0435250703933 58.167100000000005" height="58.167100000000005" width="526.0435250703933"><g transform="matrix(1,0,0,1,0,1.3446814865392156)"><svg width="395.52" viewBox="2.5 -35.45 256.28 35.95" height="55.477737026921574" data-palette-color="#ffffff"><path d="M2.5-2.3L2.5-2.3 2.5-32.3Q2.5-33.55 3.13-34.27 3.75-35 4.75-35L4.75-35 13.1-35Q21.05-35 25.18-31 29.3-27 29.3-18.4L29.3-18.4Q29.3 0 13.6 0L13.6 0 5.05 0Q2.5 0 2.5-2.3ZM12.6-25.5L12.1-25.5 12.1-10.55Q12.1-9.5 12.25-9.22 12.4-8.95 13.15-8.95L13.15-8.95Q15.9-8.95 17.32-11 18.75-13.05 18.75-17.82 18.75-22.6 17.28-24.05 15.8-25.5 12.6-25.5L12.6-25.5ZM43.1-21.1L49.55-21.1Q50.5-21.1 50.5-17.6L50.5-17.6Q50.5-16.55 50.27-15.13 50.05-13.7 49.45-13.7L49.45-13.7 43.1-13.7 43.1-8.7 52.3-8.7Q53.15-8.7 53.45-6.5L53.45-6.5Q53.6-5.55 53.6-4.48 53.6-3.4 53.3-1.7 53 0 52.3 0L52.3 0 35.2 0Q33.3 0 33.3-1.55L33.3-1.55 33.3-33.7Q33.3-35 34.45-35L34.45-35 52.35-35Q53.4-35 53.4-30.58 53.4-26.15 52.35-26.15L52.35-26.15 43.1-26.15 43.1-21.1ZM64.75-1.05L56-34.35Q56-34.6 58.17-34.83 60.35-35.05 61.75-35.05L61.75-35.05Q67.3-35.05 67.55-33.6L67.55-33.6 71.85-11.6 75.9-33.6Q76.2-35.05 82.1-35.05L82.1-35.05Q83.55-35.05 85.75-34.85 87.95-34.65 87.95-34.4L87.95-34.4 79.1-1.3Q78.9-0.5 76.15-0.25L76.15-0.25Q71.9 0.2 68.42-0.08 64.95-0.35 64.75-1.05L64.75-1.05ZM105.87 0.5Q98.84 0.5 94.42-4.1 89.99-8.7 89.99-17.53 89.99-26.35 94.47-30.9 98.94-35.45 106.02-35.45 113.09-35.45 117.44-30.98 121.79-26.5 121.79-17.43 121.79-8.35 117.34-3.93 112.89 0.5 105.87 0.5ZM105.89-25.85Q103.49-25.85 101.87-23.65 100.24-21.45 100.24-17.48 100.24-13.5 101.79-11.38 103.34-9.25 105.87-9.25 108.39-9.25 109.97-11.4 111.54-13.55 111.54-17.55 111.54-21.55 109.92-23.7 108.29-25.85 105.89-25.85ZM130.14 0.1L130.14 0.1Q125.59 0.1 125.59-0.9L125.59-0.9 125.59-33.3Q125.59-35 127.14-35L127.14-35 135.94-35Q143.34-35 146.62-31.95 149.89-28.9 149.89-23.1L149.89-23.1Q149.89-18.3 146.79-14.3L146.79-14.3Q145.24-12.3 142.24-11.1 139.24-9.9 135.24-9.9L135.24-9.9 135.24-0.95Q135.24-0.35 133.37-0.13 131.49 0.1 130.14 0.1ZM136.29-26.3L135.24-26.3 135.24-18.4 135.89-18.4Q137.64-18.4 138.84-19.5 140.04-20.6 140.04-22.6 140.04-24.6 139.22-25.45 138.39-26.3 136.29-26.3L136.29-26.3ZM155.59-12.2L155.59-12.2Q156.54-11.45 158.86-10.15 161.19-8.85 163.31-8.85 165.44-8.85 165.44-10.5L165.44-10.5Q165.44-11.25 164.84-11.83 164.24-12.4 162.64-13.15 161.04-13.9 160.24-14.33 159.44-14.75 158.11-15.73 156.79-16.7 156.09-17.75L156.09-17.75Q154.09-20.6 154.09-25 154.09-29.4 157.36-32.43 160.64-35.45 165.94-35.45L165.94-35.45Q169.54-35.45 172.59-34.68 175.64-33.9 175.74-32.65L175.74-32.65Q175.74-32.5 175.74-32.35L175.74-32.35Q175.74-30.6 174.64-27.93 173.54-25.25 173.09-24.95L173.09-24.95Q169.89-26.6 167.36-26.6 164.84-26.6 164.84-24.8L164.84-24.8Q164.84-23.7 166.69-22.85L166.69-22.85Q167.09-22.65 167.84-22.3 168.59-21.95 169.56-21.48 170.54-21 171.66-20.28 172.79-19.55 174.09-18.35L174.09-18.35Q176.74-15.85 176.74-11.75L176.74-11.75Q176.74-6.4 173.79-3 170.84 0.4 164.69 0.5L164.69 0.5Q161.69 0.5 159.26 0 156.84-0.5 155.04-1.95 153.24-3.4 153.24-5.45 153.24-7.5 153.99-9.53 154.74-11.55 155.59-12.2ZM180.69-8.6L184.14-8.6 184.14-26.4 180.59-26.4Q179.74-26.4 179.39-28.55L179.39-28.55Q179.24-29.6 179.24-30.7 179.24-31.8 179.39-32.85L179.39-32.85Q179.74-35 180.59-35L180.59-35 197.39-35Q198.24-35 198.54-32.85L198.54-32.85Q198.74-31.8 198.74-30.7 198.74-29.6 198.54-28.55L198.54-28.55Q198.24-26.4 197.39-26.4L197.39-26.4 194.04-26.4 194.04-8.6 197.54-8.6Q198.39-8.6 198.74-6.45L198.74-6.45Q198.94-5.4 198.94-4.3 198.94-3.2 198.74-2.15L198.74-2.15Q198.39 0 197.54 0L197.54 0 180.69 0Q179.84 0 179.54-2.15L179.54-2.15Q179.34-3.2 179.34-4.3 179.34-5.4 179.54-6.45L179.54-6.45Q179.84-8.6 180.69-8.6L180.69-8.6ZM216.58-35.45Q220.23-35.45 223.01-34.43 225.78-33.4 225.78-31.65 225.78-29.9 224.46-27.33 223.13-24.75 222.23-24.75L222.23-24.75Q221.98-24.75 221.66-25.03 221.33-25.3 220.16-25.63 218.98-25.95 218.13-25.95L218.13-25.95Q215.23-25.95 213.46-23.9 211.68-21.85 211.68-17.63 211.68-13.4 213.51-11.35 215.33-9.3 218.13-9.3L218.13-9.3Q219.28-9.3 220.71-9.63 222.13-9.95 222.73-10.55L222.73-10.55Q222.83-10.65 223.13-10.65 223.43-10.65 224.26-9.53 225.08-8.4 225.78-6.58 226.48-4.75 226.48-3.75L226.48-3.75Q226.48-1.8 223.48-0.65 220.48 0.5 216.38 0.5L216.38 0.5Q209.78 0.5 205.53-4.15 201.28-8.8 201.28-17.28 201.28-25.75 205.66-30.6 210.03-35.45 216.58-35.45L216.58-35.45ZM240.33-12.75L240.33-0.7Q240.33 0.05 235.63 0.05L235.63 0.05 232.83-0.1Q230.33-0.3 230.33-0.8L230.33-0.8 230.33-34.35Q230.33-35.2 235.33-35.2 240.33-35.2 240.33-34.35L240.33-34.35 240.33-21.55 246.43-34.35Q246.78-35.05 250.43-35.05L250.43-35.05Q257.08-35.05 257.43-33.9L257.43-33.9Q257.43-33.8 257.38-33.7L257.38-33.7 248.68-18 258.78-4.05Q258.78-3.95 257.83-3.2L257.83-3.2Q255.53-1.2 252.43-0.05L252.43-0.05Q251.48 0.3 250.53 0.3L250.53 0.3 249.33 0.2Q247.73-0.2 246.83-1.85L246.83-1.85 241.13-12.75 240.33-12.75Z" opacity="1" transform="matrix(1,0,0,1,0,0)" fill="#ffffff" class="wordmark-text-0" data-fill-palette-color="primary"></path></svg></g><g><svg xmlns="http://www.w3.org/2000/svg" xmlns:xlink="http://www.w3.org/1999/xlink" version="1.1" x="409.25289999999995" y="0" viewBox="1.827 20.694 96.979 48.3" enable-background="new 0 0 100 100" xml:space="preserve" height="58.167100000000005" width="116.79062507039339" class="icon-z$-0" data-fill-palette-color="accent" id="z$-0"><path fill="#00ece8" d="M81.288 47.982c0-0.001 0-0.002 0.001-0.002 0.021-0.187 0.034-0.375 0.046-0.564 0-0.004 0-0.009 0-0.013 0.011-0.194 0.017-0.39 0.017-0.586 0-6.113-5.078-11.068-11.342-11.068-6.263 0-11.342 4.955-11.342 11.068 0 0.161 0.005 0.321 0.012 0.479 0.006 0.069 0.01 0.137 0.014 0.206 0.005 0.076 0.011 0.152 0.019 0.229 0.017 0.199 0.037 0.396 0.063 0.591 0.002 0.005 0.002 0.009 0.002 0.013-0.15-0.775-0.229-1.578-0.229-2.4 0-5.579 3.649-10.265 8.58-11.581-1.676-7.807-8.612-13.66-16.92-13.66-8.749 0-15.977 6.489-17.144 14.916-1.459-0.632-3.067-0.984-4.759-0.984-6.262 0-11.398 4.806-11.929 10.93 3.486-0.817 7.415-1.278 11.569-1.278 13.179 0 24.073 4.626 25.84 10.638-3.215-4.57-13.391-7.908-25.449-7.908C13.697 47.008 1.827 51.93 1.827 58s11.87 10.994 26.509 10.994c9.019 0 16.983-1.869 21.772-4.723 3.309-0.056 6.352-0.459 8.832-1.109 4.051 0.877 8.896 1.387 14.102 1.387 14.23 0 25.764-3.809 25.764-8.506C98.805 52.295 91.471 49.117 81.288 47.982z" data-fill-palette-color="accent"></path></svg></g></svg></g></svg></g><g transform="matrix(1,0,0,1,100.47431328844513,71.26406224636754)"><svg viewBox="0 0 325.0948984935031 20.28274602961891" height="20.28274602961891" width="325.0948984935031"><g transform="matrix(1,0,0,1,0,0)"><svg width="325.0948984935031" viewBox="1.07 -35.79 583.79 36.42" height="20.28274602961891" data-palette-color="#00ece8"><path d="M28.91-19.38L28.91-19.38Q28.91-15.97 28.03-13.26 27.15-10.55 25.57-8.46 24-6.37 21.83-4.91 19.65-3.44 17.07-2.5 14.48-1.56 11.56-1.12 8.64-0.68 5.57-0.68L5.57-0.68Q4.42-0.68 3.32-0.74 2.22-0.81 1.07-0.93L1.07-0.93 1.76-32.71Q4.44-33.57 7.29-33.92 10.13-34.28 12.94-34.28L12.94-34.28Q16.43-34.28 19.36-33.3 22.29-32.32 24.41-30.43 26.54-28.54 27.72-25.77 28.91-23 28.91-19.38ZM13.28-24.17L12.3-10.01Q13.77-10.23 14.98-10.9 16.19-11.57 17.07-12.56 17.94-13.55 18.42-14.81 18.9-16.06 18.9-17.48L18.9-17.48Q18.9-18.87 18.6-20.08 18.31-21.29 17.65-22.18 16.99-23.07 15.92-23.6 14.84-24.12 13.28-24.17L13.28-24.17ZM59.03-23.54L59.03-23.54Q59.03-21.63 58.7-20.08 58.37-18.53 57.66-17.24 56.96-15.94 55.83-14.84 54.71-13.75 53.12-12.74L53.12-12.74 58.93-2.39 47.95-0.24 44.19-10.64 41.16-10.55 40.72-0.39 30.22-0.39Q30.34-5.96 30.45-11.47 30.56-16.99 30.71-22.56L30.71-22.56Q30.76-25.37 30.81-28.13 30.86-30.88 31-33.69L31-33.69Q32.71-34.33 34.37-34.74 36.03-35.16 37.71-35.39 39.38-35.62 41.1-35.71 42.82-35.79 44.63-35.79L44.63-35.79Q47.41-35.79 50.01-35.02 52.61-34.25 54.61-32.71 56.61-31.18 57.82-28.88 59.03-26.59 59.03-23.54ZM48.09-22.75L48.09-22.75Q48.09-23.78 47.81-24.63 47.53-25.49 46.98-26.11 46.43-26.73 45.62-27.09 44.8-27.44 43.7-27.44L43.7-27.44Q43.21-27.44 42.75-27.38 42.28-27.32 41.84-27.2L41.84-27.2 41.45-18.12 42.04-18.12Q43.09-18.12 44.17-18.38 45.26-18.65 46.13-19.21 46.99-19.78 47.54-20.65 48.09-21.53 48.09-22.75ZM87.71-19.73L87.71-19.73Q87.71-17.6 87.42-15.48L87.42-15.48Q83.25-15.21 79.12-14.61 75-14.01 70.87-13.43L70.87-13.43Q71.5-11.67 72.86-10.62 74.21-9.57 76.09-9.57L76.09-9.57Q77.07-9.57 78.23-9.94 79.39-10.3 80.54-10.85 81.68-11.4 82.73-12.04 83.78-12.67 84.54-13.18L84.54-13.18 83.37-2.1Q82.42-1.37 81.31-0.85 80.2-0.34 79-0.02 77.8 0.29 76.58 0.44 75.36 0.59 74.19 0.59L74.19 0.59Q71.77 0.59 69.77-0.07 67.77-0.73 66.14-1.92 64.52-3.1 63.3-4.71 62.08-6.32 61.27-8.23 60.47-10.13 60.05-12.26 59.64-14.38 59.64-16.55L59.64-16.55Q59.64-18.82 60.05-21.09 60.47-23.36 61.31-25.46 62.15-27.56 63.43-29.36 64.72-31.15 66.43-32.5 68.13-33.84 70.3-34.59 72.46-35.35 75.07-35.35L75.07-35.35Q77.24-35.35 79.04-34.75 80.83-34.16 82.23-33.09 83.64-32.03 84.68-30.57 85.71-29.1 86.38-27.36 87.06-25.61 87.39-23.67 87.71-21.73 87.71-19.73ZM77.95-20.46L77.95-21Q77.95-21.68 77.8-22.4 77.66-23.12 77.33-23.71 77-24.29 76.46-24.67 75.92-25.05 75.12-25.05L75.12-25.05Q74.14-25.05 73.4-24.52 72.65-24 72.11-23.21 71.58-22.41 71.24-21.48 70.89-20.56 70.72-19.78L70.72-19.78 77.95-20.46ZM109.22-34.96L118.74-2.1 106.63-0.54 105.17-6.05 99.6-6.05 98.38-0.54 85.93-1.76 95.65-34.28 109.22-34.96ZM100.63-13.53L104.29-13.53 102.43-22.02 100.63-13.53ZM161.93-16.55L161.93-16.55Q161.93-13.06 161.71-9.59 161.49-6.13 161.2-2.64L161.2-2.64 148.65-2.05Q149.21-6.3 149.66-10.56 150.11-14.82 150.11-19.09L150.11-19.09Q150.11-19.36 150.09-20.03 150.06-20.7 150-21.56 149.94-22.41 149.83-23.33 149.72-24.24 149.54-25.01 149.36-25.78 149.09-26.27 148.82-26.76 148.45-26.76L148.45-26.76Q147.6-26.76 147.11-26.11 146.62-25.46 146.39-24.56 146.16-23.66 146.11-22.72 146.06-21.78 146.06-21.19L146.06-21.19Q146.06-20.17 146.11-19.14 146.16-18.12 146.16-17.04L146.16-17.04Q146.16-13.26 145.97-9.5 145.79-5.74 145.52-1.95L145.52-1.95 133.95-1.51Q134.51-5.76 134.94-10 135.37-14.23 135.37-18.51L135.37-18.51Q135.37-18.77 135.34-19.48 135.32-20.19 135.26-21.07 135.2-21.95 135.07-22.9 134.95-23.85 134.77-24.65 134.58-25.44 134.32-25.95 134.05-26.46 133.66-26.46L133.66-26.46Q133.05-26.46 132.63-25.99 132.22-25.51 131.96-24.76 131.7-24 131.57-23.08 131.44-22.17 131.37-21.29 131.31-20.41 131.3-19.67 131.29-18.92 131.26-18.55L131.26-18.55 130.73-0.73 118.42-0.73Q118.81-4.86 119.22-9.01 119.62-13.16 119.92-17.3 120.23-21.44 120.42-25.59 120.62-29.74 120.62-33.89L120.62-33.89 132.24-34.38 132.19-31.54Q132.73-32.23 133.41-32.92 134.1-33.62 134.87-34.17 135.63-34.72 136.5-35.06 137.37-35.4 138.3-35.4L138.3-35.4Q139.49-35.4 140.44-35.22 141.4-35.03 142.17-34.59 142.93-34.16 143.52-33.39 144.11-32.62 144.55-31.45L144.55-31.45Q145.33-32.3 146.12-33.03 146.91-33.76 147.79-34.29 148.67-34.81 149.7-35.11 150.72-35.4 151.97-35.4L151.97-35.4Q154.34-35.4 156-34.48 157.66-33.57 158.77-32.06 159.88-30.54 160.5-28.59 161.12-26.64 161.44-24.54 161.76-22.44 161.84-20.36 161.93-18.29 161.93-16.55ZM202.35-22.51L202.35-22.51Q202.35-20.14 201.65-18.31 200.94-16.48 199.7-15.1 198.47-13.72 196.81-12.78 195.15-11.84 193.26-11.24 191.37-10.64 189.34-10.36 187.31-10.08 185.36-10.06L185.36-10.06 185.36 0.34 173.98 0.34Q173.98-2.44 174-5.08 174.01-7.71 174.02-10.31 174.03-12.92 174.05-15.55 174.06-18.19 174.08-21L174.08-21Q174.13-23.97 174.11-26.95 174.08-29.93 174.23-32.96L174.23-32.96Q177.35-33.89 180.48-34.35 183.6-34.81 186.92-34.81L186.92-34.81Q188.8-34.81 190.68-34.51 192.56-34.2 194.28-33.54 196.01-32.89 197.48-31.9 198.96-30.91 200.03-29.54 201.11-28.17 201.73-26.42 202.35-24.66 202.35-22.51ZM191.51-21.68L191.51-21.68Q191.51-23.27 190.55-24.16 189.58-25.05 188.05-25.05L188.05-25.05Q187.53-25.05 186.98-24.96 186.44-24.88 185.95-24.76L185.95-24.76 185.65-17.63Q186-17.58 186.31-17.58 186.63-17.58 186.97-17.58L186.97-17.58Q187.85-17.58 188.67-17.87 189.49-18.16 190.12-18.71 190.76-19.26 191.13-20.01 191.51-20.75 191.51-21.68ZM232.36-23.54L232.36-23.54Q232.36-21.63 232.03-20.08 231.7-18.53 230.99-17.24 230.28-15.94 229.16-14.84 228.03-13.75 226.45-12.74L226.45-12.74 232.26-2.39 221.27-0.24 217.51-10.64 214.48-10.55 214.05-0.39 203.55-0.39Q203.67-5.96 203.78-11.47 203.89-16.99 204.04-22.56L204.04-22.56Q204.08-25.37 204.13-28.13 204.18-30.88 204.33-33.69L204.33-33.69Q206.04-34.33 207.7-34.74 209.36-35.16 211.03-35.39 212.7-35.62 214.42-35.71 216.14-35.79 217.95-35.79L217.95-35.79Q220.73-35.79 223.33-35.02 225.93-34.25 227.94-32.71 229.94-31.18 231.15-28.88 232.36-26.59 232.36-23.54ZM221.42-22.75L221.42-22.75Q221.42-23.78 221.14-24.63 220.86-25.49 220.31-26.11 219.76-26.73 218.94-27.09 218.12-27.44 217.02-27.44L217.02-27.44Q216.54-27.44 216.07-27.38 215.61-27.32 215.17-27.2L215.17-27.2 214.78-18.12 215.36-18.12Q216.41-18.12 217.5-18.38 218.59-18.65 219.45-19.21 220.32-19.78 220.87-20.65 221.42-21.53 221.42-22.75ZM264.21-18.7L264.21-18.7Q264.21-16.48 263.7-14.42 263.19-12.35 262.22-10.55 261.26-8.74 259.88-7.24 258.5-5.74 256.78-4.66 255.06-3.59 253.03-2.99 251.01-2.39 248.73-2.39L248.73-2.39Q246.54-2.39 244.55-2.95 242.56-3.52 240.82-4.53 239.09-5.54 237.69-6.97 236.28-8.4 235.29-10.14 234.31-11.89 233.76-13.89 233.21-15.89 233.21-18.07L233.21-18.07Q233.21-20.19 233.72-22.23 234.23-24.27 235.2-26.07 236.16-27.88 237.53-29.39 238.9-30.91 240.59-32.01 242.29-33.11 244.27-33.72 246.24-34.33 248.44-34.33L248.44-34.33Q251.98-34.33 254.9-33.23 257.82-32.13 259.88-30.09 261.94-28.05 263.08-25.16 264.21-22.27 264.21-18.7ZM253.37-18.07L253.37-18.07Q253.37-19.12 253.07-20.1 252.76-21.09 252.18-21.86 251.59-22.63 250.72-23.11 249.86-23.58 248.73-23.58L248.73-23.58Q247.59-23.58 246.68-23.17 245.78-22.75 245.13-22.03 244.49-21.31 244.15-20.35 243.8-19.38 243.8-18.31L243.8-18.31Q243.8-17.29 244.1-16.26 244.39-15.23 244.98-14.4 245.56-13.57 246.43-13.06 247.29-12.55 248.44-12.55L248.44-12.55Q249.59-12.55 250.5-13 251.42-13.45 252.06-14.22 252.69-14.99 253.03-15.99 253.37-16.99 253.37-18.07ZM288.41-20.12L288.41-20.12Q288.41-18.68 288.41-17.26 288.41-15.84 288.26-14.4L288.26-14.4Q287.99-11.35 286.94-8.63 285.89-5.91 284.1-3.86 282.3-1.81 279.74-0.61 277.17 0.59 273.85 0.59L273.85 0.59Q272.56 0.59 271.16 0.37 269.75 0.15 268.37-0.29 266.99-0.73 265.74-1.38 264.48-2.03 263.5-2.88L263.5-2.88 265.02-12.99Q266.46-11.6 268.21-10.73 269.97-9.86 272.05-9.86L272.05-9.86Q273.39-9.86 274.32-10.25 275.25-10.64 275.86-11.33 276.47-12.01 276.82-12.93 277.17-13.84 277.33-14.88 277.49-15.92 277.53-17.02 277.57-18.12 277.57-19.19L277.57-19.19Q277.57-23.07 277.17-26.92 276.78-30.76 276.49-34.62L276.49-34.62 287.67-35.35Q288.41-27.73 288.41-20.12ZM317.82-19.73L317.82-19.73Q317.82-17.6 317.53-15.48L317.53-15.48Q313.35-15.21 309.23-14.61 305.1-14.01 300.98-13.43L300.98-13.43Q301.61-11.67 302.97-10.62 304.32-9.57 306.2-9.57L306.2-9.57Q307.18-9.57 308.34-9.94 309.5-10.3 310.64-10.85 311.79-11.4 312.84-12.04 313.89-12.67 314.65-13.18L314.65-13.18 313.48-2.1Q312.52-1.37 311.41-0.85 310.3-0.34 309.11-0.02 307.91 0.29 306.69 0.44 305.47 0.59 304.3 0.59L304.3 0.59Q301.88 0.59 299.88-0.07 297.88-0.73 296.25-1.92 294.63-3.1 293.41-4.71 292.19-6.32 291.38-8.23 290.58-10.13 290.16-12.26 289.75-14.38 289.75-16.55L289.75-16.55Q289.75-18.82 290.16-21.09 290.58-23.36 291.42-25.46 292.26-27.56 293.54-29.36 294.82-31.15 296.53-32.5 298.24-33.84 300.4-34.59 302.56-35.35 305.18-35.35L305.18-35.35Q307.35-35.35 309.14-34.75 310.94-34.16 312.34-33.09 313.74-32.03 314.78-30.57 315.82-29.1 316.49-27.36 317.16-25.61 317.49-23.67 317.82-21.73 317.82-19.73ZM308.06-20.46L308.06-21Q308.06-21.68 307.91-22.4 307.76-23.12 307.43-23.71 307.1-24.29 306.57-24.67 306.03-25.05 305.22-25.05L305.22-25.05Q304.25-25.05 303.5-24.52 302.76-24 302.22-23.21 301.68-22.41 301.34-21.48 301-20.56 300.83-19.78L300.83-19.78 308.06-20.46ZM342.7-33.35L342.7-33.35 341.82-23.05Q341.11-23.24 340.43-23.32 339.74-23.39 339.04-23.39L339.04-23.39Q337.3-23.39 335.73-22.95 334.15-22.51 332.94-21.61 331.74-20.7 331.01-19.32 330.29-17.94 330.29-16.06L330.29-16.06Q330.29-14.7 330.7-13.68 331.1-12.67 331.85-12 332.59-11.33 333.65-10.99 334.71-10.64 336.01-10.64L336.01-10.64Q336.91-10.64 337.86-10.83 338.82-11.01 339.77-11.33 340.72-11.65 341.6-12.06 342.48-12.48 343.23-12.94L343.23-12.94 342.84-1.46Q341.89-0.98 340.79-0.6 339.69-0.22 338.53 0.06 337.37 0.34 336.22 0.49 335.06 0.63 334.01 0.63L334.01 0.63Q330.54 0.63 327.69-0.66 324.85-1.95 322.81-4.19 320.77-6.42 319.65-9.38 318.53-12.33 318.53-15.67L318.53-15.67Q318.53-19.68 319.66-23.14 320.8-26.61 323.01-29.16 325.22-31.71 328.48-33.17 331.74-34.62 335.96-34.62L335.96-34.62Q337.64-34.62 339.38-34.35 341.11-34.08 342.7-33.35ZM344.28-34.38L370.89-34.42 370.65-24.07 363.37-23.78 362.49-1.12 352.19-0.59 351.26-23.24 343.99-22.85 344.28-34.38ZM410.49-22.51L410.49-22.51Q410.49-20.14 409.78-18.31 409.07-16.48 407.84-15.1 406.61-13.72 404.95-12.78 403.29-11.84 401.39-11.24 399.5-10.64 397.47-10.36 395.45-10.08 393.5-10.06L393.5-10.06 393.5 0.34 382.12 0.34Q382.12-2.44 382.13-5.08 382.14-7.71 382.15-10.31 382.17-12.92 382.18-15.55 382.19-18.19 382.22-21L382.22-21Q382.26-23.97 382.24-26.95 382.22-29.93 382.36-32.96L382.36-32.96Q385.49-33.89 388.61-34.35 391.74-34.81 395.06-34.81L395.06-34.81Q396.94-34.81 398.82-34.51 400.7-34.2 402.42-33.54 404.14-32.89 405.62-31.9 407.09-30.91 408.17-29.54 409.24-28.17 409.86-26.42 410.49-24.66 410.49-22.51ZM399.65-21.68L399.65-21.68Q399.65-23.27 398.68-24.16 397.72-25.05 396.18-25.05L396.18-25.05Q395.67-25.05 395.12-24.96 394.57-24.88 394.08-24.76L394.08-24.76 393.79-17.63Q394.13-17.58 394.45-17.58 394.76-17.58 395.11-17.58L395.11-17.58Q395.99-17.58 396.8-17.87 397.62-18.16 398.26-18.71 398.89-19.26 399.27-20.01 399.65-20.75 399.65-21.68ZM440.49-23.54L440.49-23.54Q440.49-21.63 440.16-20.08 439.83-18.53 439.12-17.24 438.41-15.94 437.29-14.84 436.17-13.75 434.58-12.74L434.58-12.74 440.39-2.39 429.41-0.24 425.65-10.64 422.62-10.55 422.18-0.39 411.68-0.39Q411.8-5.96 411.91-11.47 412.02-16.99 412.17-22.56L412.17-22.56Q412.22-25.37 412.27-28.13 412.32-30.88 412.46-33.69L412.46-33.69Q414.17-34.33 415.83-34.74 417.49-35.16 419.16-35.39 420.84-35.62 422.56-35.71 424.28-35.79 426.09-35.79L426.09-35.79Q428.87-35.79 431.47-35.02 434.07-34.25 436.07-32.71 438.07-31.18 439.28-28.88 440.49-26.59 440.49-23.54ZM429.55-22.75L429.55-22.75Q429.55-23.78 429.27-24.63 428.99-25.49 428.44-26.11 427.89-26.73 427.07-27.09 426.26-27.44 425.16-27.44L425.16-27.44Q424.67-27.44 424.21-27.38 423.74-27.32 423.3-27.2L423.3-27.2 422.91-18.12 423.5-18.12Q424.55-18.12 425.63-18.38 426.72-18.65 427.59-19.21 428.45-19.78 429-20.65 429.55-21.53 429.55-22.75ZM472.35-18.7L472.35-18.7Q472.35-16.48 471.84-14.42 471.32-12.35 470.36-10.55 469.39-8.74 468.01-7.24 466.63-5.74 464.91-4.66 463.19-3.59 461.17-2.99 459.14-2.39 456.87-2.39L456.87-2.39Q454.67-2.39 452.68-2.95 450.69-3.52 448.96-4.53 447.23-5.54 445.82-6.97 444.42-8.4 443.43-10.14 442.44-11.89 441.89-13.89 441.34-15.89 441.34-18.07L441.34-18.07Q441.34-20.19 441.85-22.23 442.37-24.27 443.33-26.07 444.3-27.88 445.66-29.39 447.03-30.91 448.73-32.01 450.42-33.11 452.4-33.72 454.38-34.33 456.58-34.33L456.58-34.33Q460.12-34.33 463.03-33.23 465.95-32.13 468.01-30.09 470.08-28.05 471.21-25.16 472.35-22.27 472.35-18.7ZM461.51-18.07L461.51-18.07Q461.51-19.12 461.2-20.1 460.9-21.09 460.31-21.86 459.73-22.63 458.86-23.11 457.99-23.58 456.87-23.58L456.87-23.58Q455.72-23.58 454.82-23.17 453.92-22.75 453.27-22.03 452.62-21.31 452.28-20.35 451.94-19.38 451.94-18.31L451.94-18.31Q451.94-17.29 452.23-16.26 452.52-15.23 453.11-14.4 453.7-13.57 454.56-13.06 455.43-12.55 456.58-12.55L456.58-12.55Q457.72-12.55 458.64-13 459.55-13.45 460.19-14.22 460.82-14.99 461.17-15.99 461.51-16.99 461.51-18.07ZM501.72-19.38L501.72-19.38Q501.72-15.97 500.84-13.26 499.96-10.55 498.38-8.46 496.81-6.37 494.64-4.91 492.46-3.44 489.87-2.5 487.29-1.56 484.37-1.12 481.45-0.68 478.38-0.68L478.38-0.68Q477.23-0.68 476.13-0.74 475.03-0.81 473.88-0.93L473.88-0.93 474.57-32.71Q477.25-33.57 480.1-33.92 482.94-34.28 485.75-34.28L485.75-34.28Q489.24-34.28 492.17-33.3 495.1-32.32 497.22-30.43 499.35-28.54 500.53-25.77 501.72-23 501.72-19.38ZM486.09-24.17L485.11-10.01Q486.58-10.23 487.79-10.9 489-11.57 489.87-12.56 490.75-13.55 491.23-14.81 491.71-16.06 491.71-17.48L491.71-17.48Q491.71-18.87 491.41-20.08 491.12-21.29 490.46-22.18 489.8-23.07 488.73-23.6 487.65-24.12 486.09-24.17L486.09-24.17ZM532.33-34.38L532.33-34.38Q531.23-25.78 530.45-17.27 529.67-8.76 528.96-0.15L528.96-0.15 518.95 0.59 519.39-3.17Q518.9-2.61 518.25-2.2 517.61-1.78 516.87-1.53 516.14-1.27 515.36-1.16 514.58-1.05 513.87-1.07L513.87-1.07Q512.21-1.1 510.75-1.72 509.28-2.34 508.06-3.38 506.84-4.42 505.86-5.8 504.89-7.18 504.22-8.7 503.54-10.23 503.19-11.82 502.84-13.4 502.84-14.89L502.84-14.89Q502.84-17.09 502.92-19.45 503.01-21.8 503.23-24.17 503.45-26.54 503.8-28.86 504.15-31.18 504.69-33.3L504.69-33.3Q507.67-33.15 510.67-33.03 513.68-32.91 516.65-32.96L516.65-32.96Q516.09-30.83 515.54-28.7 514.99-26.56 514.55-24.4 514.12-22.24 513.85-20.07 513.58-17.9 513.58-15.67L513.58-15.67Q513.58-15.16 513.63-14.21 513.68-13.26 513.88-12.33 514.09-11.4 514.52-10.71 514.95-10.01 515.73-10.01L515.73-10.01Q516.65-10.01 517.39-10.8 518.12-11.6 518.68-12.94 519.24-14.28 519.64-16.04 520.05-17.8 520.33-19.71 520.61-21.63 520.78-23.58 520.95-25.54 521.04-27.26 521.12-28.98 521.16-30.35 521.2-31.71 521.2-32.47L521.2-32.47Q521.2-32.96 521.17-33.42 521.15-33.89 521.1-34.38L521.1-34.38Q522.68-34.33 524.25-34.3 525.81-34.28 527.4-34.28L527.4-34.28Q528.62-34.28 529.85-34.29 531.08-34.3 532.33-34.38ZM556.67-33.35L556.67-33.35 555.79-23.05Q555.08-23.24 554.4-23.32 553.71-23.39 553-23.39L553-23.39Q551.27-23.39 549.7-22.95 548.12-22.51 546.91-21.61 545.7-20.7 544.98-19.32 544.26-17.94 544.26-16.06L544.26-16.06Q544.26-14.7 544.67-13.68 545.07-12.67 545.81-12 546.56-11.33 547.62-10.99 548.68-10.64 549.98-10.64L549.98-10.64Q550.88-10.64 551.83-10.83 552.78-11.01 553.74-11.33 554.69-11.65 555.57-12.06 556.45-12.48 557.2-12.94L557.2-12.94 556.81-1.46Q555.86-0.98 554.76-0.6 553.66-0.22 552.5 0.06 551.34 0.34 550.18 0.49 549.02 0.63 547.97 0.63L547.97 0.63Q544.51 0.63 541.66-0.66 538.82-1.95 536.78-4.19 534.74-6.42 533.62-9.38 532.5-12.33 532.5-15.67L532.5-15.67Q532.5-19.68 533.63-23.14 534.77-26.61 536.98-29.16 539.19-31.71 542.45-33.17 545.7-34.62 549.93-34.62L549.93-34.62Q551.61-34.62 553.35-34.35 555.08-34.08 556.67-33.35ZM558.25-34.38L584.86-34.42 584.62-24.07 577.34-23.78 576.46-1.12 566.16-0.59 565.23-23.24 557.96-22.85 558.25-34.38Z" opacity="1" transform="matrix(1,0,0,1,0,0)" fill="#00ece8" class="slogan-text-1" data-fill-palette-color="secondary" id="text-1"></path></svg></g></svg></g></svg></g></svg></g><g></g></svg></g><defs></defs></svg><rect width="395.52" height="68.83193478044018" fill="none" stroke="none" visibility="hidden"></rect></g></svg></g></svg>